<?xml version="1.0" encoding="utf-8"?>
<!-- Generator: Adobe Illustrator 24.3.0, SVG Export Plug-In . SVG Version: 6.00 Build 0)  -->
<svg version="1.1" id="Layer_1" xmlns="http://www.w3.org/2000/svg" xmlns:xlink="http://www.w3.org/1999/xlink" x="0px" y="0px"
	 viewBox="0 0 1411.02 352.05" style="enable-background:new 0 0 1411.02 352.05;" xml:space="preserve">
<style type="text/css">
	.st0{fill:#1A1A18;}
</style>
<g>
	<g>
		<g>
			<g>
				<path class="st0" d="M374.91,42.42h-57.26c-40.99,0-74.23,33.23-74.23,74.23v173.9c0,3.51,2.85,6.36,6.36,6.36h29.69
					c3.51,0,6.36-2.85,6.36-6.36v-173.9c0-17.57,14.24-31.81,31.81-31.81h57.26c3.51,0,6.36-2.85,6.36-6.36V48.79
					C381.27,45.26,378.42,42.42,374.91,42.42z"/>
				<path class="st0" d="M139.51,42.42H74.23C33.24,42.42,0,75.65,0,116.65v106.04v123c0,3.51,2.85,6.36,6.36,6.36h29.69
					c3.51,0,6.36-2.85,6.36-6.36v-55.95c9.65,4.6,20.43,7.18,31.81,7.18h65.29c40.99,0,74.23-33.23,74.23-74.23V116.64
					C213.73,75.65,180.5,42.42,139.51,42.42z M171.32,222.68c0,17.54-14.27,31.81-31.81,31.81H74.23
					c-17.54,0-31.81-14.27-31.81-31.81V116.64c0-17.54,14.27-31.81,31.81-31.81h65.28c17.54,0,31.81,14.27,31.81,31.81V222.68z"/>
				<path class="st0" d="M1101.85,42.42h-54.68c-40.99,0-74.23,33.23-74.23,74.23v106.04c0,40.99,33.23,74.23,74.23,74.23h54.68
					c40.99,0,74.23-33.23,74.23-74.23v-14.85c0-3.51-2.85-6.36-6.36-6.36h-29.69c-3.51,0-6.36,2.85-6.36,6.36v14.85
					c0,17.57-14.24,31.81-31.81,31.81h-54.68c-17.57,0-31.81-14.24-31.81-31.81V116.64c0-17.57,14.24-31.81,31.81-31.81h54.68
					c17.57,0,31.81,14.24,31.81,31.81v14.84c0,3.51,2.85,6.36,6.36,6.36h29.69c3.51,0,6.36-2.85,6.36-6.36v-14.84
					C1176.08,75.65,1142.85,42.42,1101.85,42.42z"/>
				<path class="st0" d="M1336.8,42.42h-65.29c-40.93,0-74.23,33.3-74.23,74.23v106.04c0,40.93,33.3,74.23,74.23,74.23h65.28
					c40.93,0,74.23-33.3,74.23-74.23V116.64C1411.02,75.71,1377.72,42.42,1336.8,42.42z M1368.61,222.68
					c0,17.54-14.27,31.81-31.81,31.81h-65.29c-17.54,0-31.81-14.27-31.81-31.81V116.64c0-17.54,14.27-31.81,31.81-31.81h65.28
					c17.54,0,31.81,14.27,31.81,31.81L1368.61,222.68L1368.61,222.68z"/>
				<path class="st0" d="M577.44,42.42H467.38c-40.58,0-74.62,32.04-75.49,72.6c-0.46,21.4,8.2,40.81,22.33,54.64
					c-14.14,13.83-22.79,33.25-22.33,54.64c0.87,40.57,34.91,72.6,75.49,72.6h110.06c3.51,0,6.36-2.85,6.36-6.36v-29.69
					c0-3.51-2.85-6.36-6.36-6.36H467.02c-17.11,0-31.85-13.12-32.69-30.21c-0.9-18.27,13.7-33.41,31.77-33.41h68.92
					c3.51,0,6.36-2.85,6.36-6.36v-29.69c0-3.51-2.85-6.36-6.36-6.36H466.1c-18.07,0-32.67-15.15-31.77-33.41
					c0.84-17.09,15.58-30.21,32.69-30.21h110.42c3.51,0,6.36-2.85,6.36-6.36V48.79C583.8,45.26,580.95,42.42,577.44,42.42z"/>
				<path class="st0" d="M743.92,254.49h-57.26c-17.57,0-31.81-14.24-31.81-31.81V84.83h84.83c3.51,0,6.36-2.85,6.36-6.36V48.78
					c0-3.51-2.85-6.36-6.36-6.36h-84.83V6.36c0-3.51-2.85-6.36-6.36-6.36H618.8c-3.51,0-6.36,2.85-6.36,6.36v36.05v42.41v137.85
					c0,40.99,33.23,74.23,74.23,74.23h57.26c3.51,0,6.36-2.85,6.36-6.36v-29.69C750.28,257.34,747.43,254.49,743.92,254.49z"/>
				<path class="st0" d="M949.1,42.42H839.04c-40.58,0-74.62,32.04-75.49,72.6c-0.46,21.4,8.2,40.81,22.33,54.64
					c-14.14,13.83-22.79,33.25-22.33,54.64c0.87,40.57,34.91,72.6,75.49,72.6H949.1c3.51,0,6.36-2.85,6.36-6.36v-29.69
					c0-3.51-2.85-6.36-6.36-6.36H838.68c-17.11,0-31.85-13.12-32.69-30.21c-0.9-18.27,13.7-33.41,31.77-33.41h68.92
					c3.51,0,6.36-2.85,6.36-6.36v-29.69c0-3.51-2.85-6.36-6.36-6.36h-68.92c-18.07,0-32.67-15.15-31.77-33.41
					c0.84-17.09,15.58-30.21,32.69-30.21H949.1c3.51,0,6.36-2.85,6.36-6.36V48.79C955.46,45.26,952.61,42.42,949.1,42.42z"/>
			</g>
		</g>
	</g>
</g>
</svg>
