<?xml version="1.0" encoding="utf-8"?>
<!-- Generator: Adobe Illustrator 24.3.0, SVG Export Plug-In . SVG Version: 6.00 Build 0)  -->
<svg version="1.1" id="Layer_1" xmlns="http://www.w3.org/2000/svg" xmlns:xlink="http://www.w3.org/1999/xlink" x="0px" y="0px"
	 viewBox="0 0 416.5 283.5" style="enable-background:new 0 0 416.5 283.5;" xml:space="preserve">
<style type="text/css">
	.st0{fill:#1A1A18;}
</style>
<g>
	<g>
		<g>
			<g>
				<path class="st0" d="M39,13.7h5l7.4,27.4h2.3l7.6-27.4h4.8l-8.9,31.4h-9.4L39,13.7z"/>
				<g>
					<path class="st0" d="M15.3,45.1h19.8v-4.7H15.2c-4,0-7.3-3.1-7.5-7c-0.1-2,0.6-4,2-5.4c1.4-1.5,3.3-2.3,5.3-2.3h12.2V21H15.1
						c-2,0-3.9-0.8-5.3-2.3c-1.4-1.5-2.1-3.4-2-5.4c0.2-3.9,3.5-7,7.5-7h19.8V1.6H15.3C8.7,1.6,3.2,6.9,3,13.4
						c-0.1,3.4,1.2,6.5,3.6,8.9l1.1,1.1l-1.1,1.1C4.2,26.8,3,30,3,33.4C3.2,39.8,8.7,45.1,15.3,45.1z"/>
				</g>
				<path class="st0" d="M70.2,29.4c0-5.7,1-9.9,3.1-12.5s5.5-3.8,10.4-3.8c4.9,0,8.3,1.3,10.4,3.8c2,2.6,3.1,6.7,3.1,12.5
					s-1,9.9-2.9,12.5c-1.9,2.6-5.4,3.9-10.6,3.9s-8.6-1.3-10.6-3.9C71.2,39.3,70.2,35.1,70.2,29.4z M75.1,29.3
					c0,4.6,0.6,7.8,1.7,9.6c1.1,1.8,3.4,2.8,7,2.8s5.9-0.9,6.9-2.7c1.1-1.8,1.6-5,1.6-9.6s-0.6-7.8-1.8-9.5
					c-1.2-1.7-3.5-2.6-6.8-2.6s-5.6,0.9-6.8,2.6C75.7,21.5,75.1,24.7,75.1,29.3z"/>
				<path class="st0" d="M105.2,45.1V0h4.7v45.1H105.2z"/>
				<path class="st0" d="M138.9,13.7h4.7v31.4h-4.7V43c-3.1,1.9-6.2,2.8-9.3,2.8c-4.3,0-7.1-1.1-8.5-3.3s-2.1-6.3-2.1-12.3V13.7h4.7
					v16.4c0,4.6,0.4,7.6,1.2,9.2c0.8,1.5,2.6,2.3,5.4,2.3c1.4,0,2.8-0.2,4.2-0.6c1.4-0.4,2.5-0.8,3.3-1.2l1.1-0.6L138.9,13.7
					L138.9,13.7z"/>
				<path class="st0" d="M164.5,13.1c1.4,0,3.7,0.2,7,0.8L173,14l-0.2,3.8c-3.4-0.4-5.8-0.6-7.4-0.6c-3.6,0-6,0.9-7.3,2.5
					c-1.3,1.7-1.9,4.8-1.9,9.4s0.6,7.8,1.8,9.6c1.2,1.8,3.7,2.7,7.4,2.7l7.4-0.6l0.2,3.9c-3.9,0.6-6.8,0.9-8.7,0.9
					c-4.9,0-8.3-1.3-10.1-3.8c-1.9-2.5-2.8-6.8-2.8-12.7s1-10.2,3-12.6C156.4,14.3,159.8,13.1,164.5,13.1z"/>
				<path class="st0" d="M180.1,6.6V1.1h4.7v5.5H180.1z M180.1,45.1V13.7h4.7v31.4L180.1,45.1L180.1,45.1z"/>
				<path class="st0" d="M192.5,29.4c0-5.7,1-9.9,3.1-12.5s5.5-3.8,10.4-3.8c4.9,0,8.3,1.3,10.4,3.8s3.1,6.7,3.1,12.5
					s-1,9.9-2.9,12.5c-1.9,2.6-5.4,3.9-10.6,3.9s-8.6-1.3-10.6-3.9C193.5,39.3,192.5,35.1,192.5,29.4z M197.4,29.3
					c0,4.6,0.6,7.8,1.7,9.6c1.1,1.8,3.4,2.8,7,2.8s5.9-0.9,6.9-2.7c1.1-1.8,1.6-5,1.6-9.6s-0.6-7.8-1.8-9.5
					c-1.2-1.7-3.5-2.6-6.8-2.6s-5.6,0.9-6.8,2.6C198,21.5,197.4,24.7,197.4,29.3z"/>
				<path class="st0" d="M231.8,45.1h-4.7V13.7h4.6v2.2c3.4-1.9,6.6-2.8,9.7-2.8c4.2,0,7,1.1,8.5,3.4c1.4,2.3,2.2,6.3,2.2,12.1v16.6
					h-4.6V28.7c0-4.4-0.4-7.4-1.3-9s-2.7-2.4-5.5-2.4c-1.3,0-2.8,0.2-4.2,0.6c-1.5,0.4-2.6,0.8-3.4,1.2l-1.2,0.6L231.8,45.1
					L231.8,45.1z"/>
				<path class="st0" d="M283,23.2v16.1c0.1,1.5,1.3,2.5,3.6,2.8l-0.2,3.7c-3.3,0-5.8-0.8-7.5-2.5c-3.8,1.7-7.5,2.5-11.3,2.5
					c-2.9,0-5.1-0.8-6.6-2.5s-2.3-4-2.3-7s0.8-5.3,2.3-6.8c1.5-1.5,4-2.3,7.3-2.7l9.9-0.9v-2.7c0-2.1-0.5-3.7-1.4-4.6
					s-2.2-1.4-3.8-1.4c-3.4,0-6.8,0.2-10.4,0.6l-2,0.2l-0.2-3.6c4.6-0.9,8.7-1.4,12.3-1.4s6.1,0.8,7.8,2.4
					C282.2,17.2,283,19.7,283,23.2z M263.7,36c0,3.9,1.6,5.8,4.8,5.8c2.9,0,5.7-0.5,8.4-1.5l1.5-0.5V29.5l-9.3,0.9
					c-1.9,0.2-3.2,0.7-4.1,1.6C264.1,32.9,263.7,34.3,263.7,36z"/>
				<path class="st0" d="M297.1,45.1h-4.7V13.7h4.6v2.2c3.1-1.9,6.2-2.8,9.2-2.8c3.9,0,6.6,1.1,8.2,3.2c1.4-0.8,3.2-1.6,5.4-2.2
					s4.1-1,5.8-1c4.2,0,7,1.1,8.5,3.4c1.5,2.2,2.2,6.3,2.2,12.1v16.6h-4.7V28.7c0-4.4-0.4-7.4-1.3-9s-2.6-2.4-5.3-2.4
					c-1.4,0-2.8,0.2-4.3,0.6c-1.5,0.4-2.6,0.8-3.4,1.2l-1.2,0.6c0.5,1.4,0.8,4.4,0.8,9.2v16.4h-4.7V28.9c0-4.5-0.4-7.6-1.2-9.2
					s-2.6-2.4-5.4-2.4c-1.3,0-2.7,0.2-4.1,0.6c-1.4,0.4-2.5,0.8-3.2,1.2l-1.1,0.6L297.1,45.1L297.1,45.1z"/>
				<path class="st0" d="M343.5,29.4c0-5.7,1-9.9,3.1-12.5s5.5-3.8,10.4-3.8c4.9,0,8.3,1.3,10.4,3.8s3,6.7,3,12.5s-1,9.9-2.9,12.5
					c-1.9,2.6-5.5,3.9-10.6,3.9s-8.6-1.3-10.6-3.9C344.5,39.3,343.5,35.1,343.5,29.4z M348.4,29.3c0,4.6,0.6,7.8,1.7,9.6
					c1.1,1.8,3.4,2.8,7,2.8s5.9-0.9,7-2.7c1.1-1.8,1.6-5,1.6-9.6s-0.6-7.8-1.8-9.5c-1.2-1.7-3.5-2.6-6.8-2.6s-5.5,0.9-6.8,2.6
					C349,21.5,348.4,24.7,348.4,29.3z"/>
				<path class="st0" d="M388,17.3c-4.6,0-6.9,1.6-6.9,4.8c0,1.5,0.5,2.5,1.6,3.1c1,0.6,3.4,1.2,7.2,1.9s6.4,1.6,7.9,2.7
					c1.5,1.2,2.3,3.4,2.3,6.6s-1,5.6-3.1,7.1s-5.1,2.3-9.1,2.3c-2.6,0-5.7-0.3-9.2-0.9l-1.9-0.3l0.2-4.1c4.8,0.7,8.4,1.1,10.8,1.1
					s4.3-0.4,5.6-1.2c1.3-0.8,1.9-2.1,1.9-3.9s-0.5-3.1-1.6-3.7c-1.1-0.7-3.5-1.3-7.2-1.9c-3.7-0.6-6.3-1.5-7.9-2.6
					s-2.3-3.2-2.3-6.3s1.1-5.3,3.2-6.8s4.9-2.2,8.1-2.2c2.6,0,5.8,0.3,9.6,0.9l1.8,0.3l-0.1,4C394.3,17.6,390.7,17.3,388,17.3z"/>
				<path class="st0" d="M19.1,97h-10v15c0,3.6,0.3,6,0.8,7.1c0.5,1.1,1.8,1.7,3.7,1.7l5.6-0.4l0.3,3.9c-2.8,0.5-4.9,0.7-6.4,0.7
					c-3.3,0-5.5-0.8-6.8-2.4s-1.9-4.6-1.9-9.1V97H0v-4.1h4.5v-9.6h4.7v9.6h10V97z"/>
				<path class="st0" d="M45,92.9h4.7v31.4H45v-2.2c-3.1,1.9-6.2,2.8-9.3,2.8c-4.3,0-7.1-1.1-8.5-3.3c-1.4-2.2-2.1-6.3-2.1-12.3
					V92.9h4.7v16.3c0,4.6,0.4,7.6,1.2,9.2c0.8,1.6,2.6,2.3,5.4,2.3c1.4,0,2.8-0.2,4.2-0.6s2.5-0.8,3.3-1.2l1.1-0.6L45,92.9L45,92.9z
					"/>
				<path class="st0" d="M78.2,124.4h-4.7V92.9h4.7v2.2c3.4-1.9,6.6-2.8,9.7-2.8c4.2,0,7,1.1,8.5,3.4c1.4,2.3,2.2,6.3,2.2,12.1v16.6
					h-4.7v-16.5c0-4.4-0.4-7.3-1.3-9s-2.7-2.4-5.5-2.4c-1.3,0-2.8,0.2-4.2,0.6c-1.5,0.4-2.6,0.8-3.4,1.2l-1.2,0.6
					C78.1,98.9,78.1,124.4,78.2,124.4z"/>
				<path class="st0" d="M129,120.5l1.8-0.2l0.1,3.7c-4.8,0.7-8.9,1-12.3,1c-4.5,0-7.7-1.3-9.6-3.9s-2.8-6.7-2.8-12.2
					c0-11,4.4-16.5,13.1-16.5c4.2,0,7.4,1.2,9.5,3.6c2.1,2.4,3.1,6.1,3.1,11.2l-0.2,3.6H111c0,3.5,0.6,6.1,1.9,7.7
					c1.3,1.7,3.4,2.5,6.6,2.5C122.6,120.8,125.8,120.7,129,120.5z M127.3,106.8c0-3.9-0.6-6.6-1.9-8.2s-3.2-2.4-6-2.4
					s-4.9,0.8-6.3,2.5c-1.4,1.7-2.1,4.4-2.2,8.1L127.3,106.8L127.3,106.8z"/>
				<path class="st0" d="M152,139.1c-5,0-8.5-0.7-10.5-2s-3-3.9-3-7.4c0-1.7,0.4-3.1,1.1-4.2s2-2.3,3.8-3.6
					c-1.2-0.8-1.8-2.2-1.8-4.3c0-0.7,0.5-2,1.6-4l0.6-1c-3.3-1.5-5-4.7-5-9.5c0-7.2,3.9-10.8,11.8-10.8c2,0,3.9,0.2,5.6,0.6l0.9,0.2
					l9.3-0.2v4l-6-0.1c1.4,1.4,2.1,3.5,2.1,6.3c0,3.9-1,6.7-2.9,8.3s-5,2.4-9.2,2.4c-1.1,0-2.2-0.1-3.1-0.2c-0.8,1.8-1.1,3-1.1,3.6
					c0,1.3,0.4,2.1,1.2,2.4c0.8,0.3,3.2,0.5,7.2,0.5c4,0,6.9,0.6,8.7,1.9c1.8,1.3,2.6,3.7,2.6,7.4
					C165.9,135.8,161.3,139.1,152,139.1z M143.1,129.3c0,2.2,0.6,3.8,1.9,4.6s3.5,1.3,6.9,1.3s5.7-0.5,7.2-1.4s2.2-2.5,2.2-4.6
					c0-2.2-0.5-3.6-1.6-4.2s-3.1-0.9-6.2-0.9l-6.8-0.3c-1.4,1-2.3,1.9-2.8,2.6C143.3,127.1,143.1,128.1,143.1,129.3z M143.5,103.1
					c0,2.5,0.6,4.2,1.7,5.3c1.1,1.1,2.9,1.6,5.5,1.6s4.4-0.5,5.5-1.6s1.6-2.8,1.6-5.3s-0.6-4.3-1.6-5.3c-1.1-1.1-2.9-1.6-5.5-1.6
					s-4.4,0.5-5.5,1.6C144.1,98.8,143.5,100.6,143.5,103.1z"/>
				<path class="st0" d="M171.2,108.6c0-5.7,1-9.9,3.1-12.4s5.5-3.8,10.4-3.8s8.3,1.3,10.4,3.8s3.1,6.7,3.1,12.4s-1,9.9-2.9,12.5
					s-5.4,3.9-10.6,3.9s-8.6-1.3-10.6-3.9C172.2,118.5,171.2,114.3,171.2,108.6z M176,108.5c0,4.6,0.6,7.8,1.7,9.7
					c1.1,1.8,3.4,2.8,7,2.8s5.9-0.9,6.9-2.7c1.1-1.8,1.6-5,1.6-9.7s-0.6-7.8-1.8-9.5c-1.2-1.7-3.5-2.6-6.8-2.6s-5.6,0.9-6.8,2.6
					S176,103.9,176,108.5z"/>
				<path class="st0" d="M218,92.3c1.4,0,3.7,0.2,7,0.8l1.5,0.2l-0.2,3.8c-3.4-0.4-5.8-0.6-7.4-0.6c-3.6,0-6,0.8-7.3,2.6
					c-1.3,1.7-1.9,4.8-1.9,9.4s0.6,7.8,1.8,9.6c1.2,1.8,3.7,2.7,7.4,2.7l7.4-0.6l0.2,3.9c-3.9,0.6-6.8,0.9-8.7,0.9
					c-4.9,0-8.3-1.3-10.1-3.8c-1.9-2.5-2.8-6.8-2.8-12.7c0-6,1-10.2,3-12.6C209.9,93.5,213.3,92.3,218,92.3z"/>
				<path class="st0" d="M234.1,85.8v-5.5h4.7v5.5H234.1z M234.1,124.4V92.9h4.7v31.4H234.1z"/>
				<path class="st0" d="M246.9,108.6c0-5.7,1-9.9,3.1-12.4s5.5-3.8,10.4-3.8c4.9,0,8.3,1.3,10.4,3.8s3,6.7,3,12.4s-1,9.9-2.9,12.5
					c-1.9,2.6-5.5,3.9-10.6,3.9s-8.6-1.3-10.6-3.9C247.9,118.5,246.9,114.3,246.9,108.6z M251.7,108.5c0,4.6,0.6,7.8,1.7,9.7
					c1.1,1.8,3.4,2.8,7,2.8s5.9-0.9,7-2.7c1.1-1.8,1.6-5,1.6-9.7s-0.6-7.8-1.8-9.5c-1.2-1.7-3.5-2.6-6.8-2.6s-5.6,0.9-6.8,2.6
					C252.4,100.7,251.7,103.9,251.7,108.5z"/>
				<path class="st0" d="M279.5,132.1l2.9-14.5h5.2l-4.2,14.5H279.5z"/>
				<path class="st0" d="M2.8,165.1v-5.5h4.7v5.5H2.8z M2.8,203.6v-31.4h4.7v31.4H2.8z"/>
				<path class="st0" d="M20.4,203.6h-4.7v-31.4h4.6v2.2c3.1-1.9,6.2-2.8,9.2-2.8c3.9,0,6.6,1.1,8.2,3.2c1.4-0.8,3.2-1.6,5.4-2.2
					s4.1-1,5.8-1c4.2,0,7,1.1,8.5,3.4s2.2,6.3,2.2,12.1v16.6h-4.7v-16.5c0-4.4-0.4-7.4-1.3-9s-2.6-2.4-5.3-2.4
					c-1.4,0-2.8,0.2-4.3,0.6c-1.5,0.4-2.6,0.8-3.4,1.2l-1.2,0.6c0.5,1.4,0.8,4.4,0.8,9.2v16.4h-4.7v-16.2c0-4.5-0.4-7.6-1.2-9.2
					s-2.6-2.4-5.4-2.4c-1.3,0-2.7,0.2-4.1,0.6c-1.4,0.4-2.5,0.8-3.2,1.2l-1.1,0.6L20.4,203.6L20.4,203.6z"/>
				<path class="st0" d="M67.3,217.6v-45.4h4.7v2.3c3.2-1.9,6.3-2.9,9.4-2.9c4,0,6.9,1.3,8.7,3.8c1.8,2.5,2.7,6.7,2.7,12.5
					c0,5.8-1.1,10-3.2,12.5c-2.1,2.5-5.6,3.8-10.5,3.8c-2.6,0-4.9-0.2-7-0.7v14L67.3,217.6L67.3,217.6z M80.7,175.8
					c-1.3,0-2.6,0.2-4.1,0.6s-2.6,0.8-3.4,1.3l-1.2,0.6v21.2c3,0.5,5.2,0.7,6.8,0.7c3.4,0,5.8-1,7.1-2.9c1.4-1.9,2-5.1,2-9.4
					c0-4.4-0.6-7.5-1.8-9.3C84.9,176.7,83.1,175.8,80.7,175.8z"/>
				<path class="st0" d="M99.8,203.6v-45.1h4.7v45.1H99.8z"/>
				<path class="st0" d="M134.4,199.7l1.8-0.2l0.1,3.7c-4.8,0.7-8.9,1-12.3,1c-4.5,0-7.7-1.3-9.6-3.9s-2.8-6.7-2.8-12.2
					c0-11,4.4-16.5,13.1-16.5c4.2,0,7.4,1.2,9.5,3.6c2.1,2.4,3.1,6.1,3.1,11.2l-0.2,3.6h-20.8c0,3.5,0.6,6.1,1.9,7.7
					c1.3,1.7,3.4,2.5,6.6,2.5C128,200.1,131.2,199.9,134.4,199.7z M132.7,186.1c0-3.9-0.6-6.6-1.9-8.2s-3.2-2.4-6-2.4
					s-4.9,0.8-6.3,2.5c-1.4,1.7-2.1,4.4-2.2,8.1L132.7,186.1L132.7,186.1z"/>
				<path class="st0" d="M148.6,203.6h-4.7v-31.4h4.6v2.2c3.1-1.9,6.2-2.8,9.2-2.8c3.9,0,6.6,1.1,8.2,3.2c1.4-0.8,3.2-1.6,5.4-2.2
					c2.2-0.6,4.1-1,5.8-1c4.2,0,7,1.1,8.5,3.4c1.4,2.2,2.2,6.3,2.2,12.1v16.6H183v-16.5c0-4.4-0.4-7.4-1.3-9s-2.6-2.4-5.3-2.4
					c-1.4,0-2.8,0.2-4.3,0.6c-1.5,0.4-2.6,0.8-3.4,1.2l-1.2,0.6c0.5,1.4,0.8,4.4,0.8,9.2v16.4h-4.7v-16.2c0-4.5-0.4-7.6-1.2-9.2
					c-0.8-1.6-2.6-2.4-5.4-2.4c-1.3,0-2.7,0.2-4.1,0.6c-1.4,0.4-2.5,0.8-3.2,1.2l-1.1,0.6L148.6,203.6L148.6,203.6z"/>
				<path class="st0" d="M216.9,199.7l1.8-0.2l0.1,3.7c-4.8,0.7-8.9,1-12.3,1c-4.5,0-7.7-1.3-9.6-3.9s-2.8-6.7-2.8-12.2
					c0-11,4.4-16.5,13.1-16.5c4.2,0,7.4,1.2,9.5,3.6c2.1,2.4,3.1,6.1,3.1,11.2l-0.2,3.6h-20.8c0,3.5,0.6,6.1,1.9,7.7
					c1.3,1.7,3.4,2.5,6.6,2.5C210.4,200.1,213.6,199.9,216.9,199.7z M215.1,186.1c0-3.9-0.6-6.6-1.9-8.2s-3.2-2.4-6-2.4
					s-4.9,0.8-6.3,2.5c-1.4,1.7-2.1,4.4-2.2,8.1L215.1,186.1L215.1,186.1z"/>
				<path class="st0" d="M231,203.6h-4.7v-31.4h4.6v2.2c3.4-1.9,6.6-2.8,9.7-2.8c4.2,0,7,1.1,8.5,3.4c1.4,2.3,2.2,6.3,2.2,12.1v16.6
					h-4.6v-16.5c0-4.4-0.4-7.4-1.3-9s-2.7-2.4-5.5-2.4c-1.3,0-2.8,0.2-4.2,0.6c-1.5,0.4-2.6,0.8-3.4,1.2l-1.2,0.6L231,203.6
					L231,203.6z"/>
				<path class="st0" d="M275.2,176.2h-10v15c0,3.6,0.3,6,0.8,7.1c0.5,1.1,1.8,1.7,3.7,1.7l5.6-0.4l0.3,3.9c-2.8,0.5-5,0.7-6.4,0.7
					c-3.3,0-5.5-0.8-6.8-2.4s-1.9-4.6-1.9-9.1v-16.5h-4.5v-4.1h4.5v-9.6h4.6v9.6h10L275.2,176.2L275.2,176.2z"/>
				<path class="st0" d="M302.2,181.7v16.1c0.1,1.6,1.3,2.5,3.6,2.8l-0.2,3.7c-3.3,0-5.8-0.8-7.5-2.5c-3.8,1.7-7.5,2.5-11.3,2.5
					c-2.9,0-5.1-0.8-6.6-2.4c-1.5-1.6-2.3-4-2.3-7s0.8-5.3,2.3-6.8c1.5-1.4,4-2.3,7.3-2.7l9.9-0.9v-2.7c0-2.1-0.5-3.7-1.4-4.6
					s-2.2-1.4-3.8-1.4c-3.4,0-6.8,0.2-10.4,0.6l-2,0.2l-0.2-3.6c4.6-0.9,8.7-1.4,12.3-1.4s6.1,0.8,7.8,2.4
					C301.4,175.6,302.2,178.2,302.2,181.7z M282.9,194.5c0,3.9,1.6,5.8,4.8,5.8c2.9,0,5.7-0.5,8.4-1.4l1.5-0.5v-10.4l-9.3,0.9
					c-1.9,0.2-3.2,0.7-4.1,1.6C283.3,191.4,282.9,192.7,282.9,194.5z"/>
				<path class="st0" d="M315.3,203.6h-4.7v-31.4h4.6v2.2c3.1-1.9,6.2-2.8,9.2-2.8c3.9,0,6.6,1.1,8.2,3.2c1.4-0.8,3.2-1.6,5.4-2.2
					s4.1-1,5.8-1c4.2,0,7,1.1,8.5,3.4c1.5,2.2,2.2,6.3,2.2,12.1v16.6h-4.7v-16.5c0-4.4-0.4-7.4-1.3-9s-2.6-2.4-5.3-2.4
					c-1.4,0-2.8,0.2-4.3,0.6c-1.5,0.4-2.6,0.8-3.4,1.2l-1.2,0.6c0.5,1.4,0.8,4.4,0.8,9.2v16.4h-4.7v-16.2c0-4.5-0.4-7.6-1.2-9.2
					s-2.6-2.4-5.4-2.4c-1.3,0-2.7,0.2-4.1,0.6c-1.4,0.4-2.5,0.8-3.2,1.2l-1.1,0.6L315.3,203.6L315.3,203.6z"/>
				<path class="st0" d="M360.8,187.8c0-5.7,1-9.9,3.1-12.4s5.5-3.8,10.4-3.8c4.9,0,8.3,1.3,10.4,3.8s3,6.7,3,12.4
					c0,5.7-1,9.9-2.9,12.5c-1.9,2.6-5.5,3.9-10.6,3.9s-8.6-1.3-10.6-3.9C361.8,197.7,360.8,193.6,360.8,187.8z M365.7,187.7
					c0,4.6,0.6,7.8,1.7,9.6c1.1,1.9,3.4,2.8,7,2.8s5.9-0.9,7-2.7c1.1-1.8,1.6-5,1.6-9.6s-0.6-7.8-1.8-9.5c-1.2-1.7-3.5-2.6-6.8-2.6
					s-5.5,0.9-6.8,2.6C366.3,180,365.7,183.1,365.7,187.7z"/>
				<path class="st0" d="M404.3,175.8c-4.6,0-6.9,1.6-6.9,4.8c0,1.5,0.5,2.5,1.6,3.1c1,0.6,3.4,1.2,7.2,1.9s6.4,1.6,7.9,2.7
					c1.5,1.2,2.3,3.4,2.3,6.6c0,3.2-1,5.6-3.1,7.1s-5.1,2.3-9.1,2.3c-2.6,0-5.7-0.3-9.2-0.9l-1.9-0.3l0.2-4.1
					c4.8,0.7,8.4,1.1,10.8,1.1s4.3-0.4,5.6-1.2c1.3-0.8,1.9-2.1,1.9-3.9c0-1.8-0.5-3.1-1.6-3.7c-1.1-0.6-3.5-1.3-7.2-1.9
					c-3.7-0.6-6.3-1.4-7.9-2.6s-2.3-3.2-2.3-6.3s1.1-5.3,3.2-6.8c2.2-1.5,4.9-2.2,8.1-2.2c2.6,0,5.8,0.3,9.6,0.9l1.8,0.3l-0.1,4
					C410.7,176.1,407,175.8,404.3,175.8z"/>
				<path class="st0" d="M12.7,255c-4.6,0-6.8,1.6-6.8,4.8c0,1.5,0.5,2.5,1.6,3.1c1.1,0.6,3.4,1.2,7.2,1.9c3.7,0.6,6.4,1.6,7.9,2.7
					c1.5,1.2,2.3,3.4,2.3,6.6s-1,5.6-3.1,7.1c-2.1,1.5-5.1,2.3-9.1,2.3c-2.6,0-5.7-0.3-9.2-0.9l-1.9-0.3l0.2-4.1
					c4.8,0.7,8.4,1.1,10.8,1.1s4.3-0.4,5.6-1.2c1.3-0.8,1.9-2.1,1.9-3.9s-0.5-3.1-1.6-3.7c-1.1-0.6-3.5-1.3-7.2-1.9
					C7.6,268,5,267.2,3.5,266s-2.3-3.2-2.3-6.3s1.1-5.3,3.2-6.8c2.2-1.5,4.8-2.2,8.1-2.2c2.6,0,5.8,0.3,9.6,0.9l1.8,0.3l-0.1,4
					C19,255.3,15.4,255,12.7,255z"/>
				<path class="st0" d="M30.7,267c0-5.7,1-9.9,3.1-12.4c2-2.6,5.5-3.8,10.4-3.8c4.9,0,8.3,1.3,10.4,3.8c2,2.6,3,6.7,3,12.4
					s-1,9.9-2.9,12.5s-5.5,3.9-10.6,3.9s-8.6-1.3-10.6-3.9C31.6,277,30.7,272.8,30.7,267z M35.5,267c0,4.6,0.6,7.8,1.7,9.6
					c1.1,1.9,3.4,2.8,7,2.8s5.9-0.9,7-2.7c1.1-1.8,1.6-5,1.6-9.6s-0.6-7.8-1.8-9.5c-1.2-1.7-3.5-2.6-6.8-2.6s-5.5,0.9-6.8,2.6
					C36.1,259.2,35.5,262.4,35.5,267z"/>
				<path class="st0" d="M65.6,282.8v-45.1h4.7v45.1H65.6z"/>
				<path class="st0" d="M99.4,251.4h4.7v31.4h-4.7v-2.2c-3.1,1.9-6.2,2.8-9.3,2.8c-4.3,0-7.1-1.1-8.5-3.3
					c-1.4-2.2-2.1-6.3-2.1-12.3v-16.4h4.7v16.4c0,4.6,0.4,7.6,1.2,9.2c0.8,1.5,2.6,2.3,5.4,2.3c1.4,0,2.8-0.2,4.2-0.6
					s2.5-0.8,3.3-1.2l1.1-0.6V251.4z"/>
				<path class="st0" d="M124.9,250.8c1.4,0,3.7,0.2,7,0.8l1.5,0.2l-0.2,3.8c-3.4-0.4-5.8-0.6-7.4-0.6c-3.6,0-6,0.9-7.3,2.6
					c-1.3,1.7-1.9,4.8-1.9,9.4s0.6,7.8,1.8,9.6s3.7,2.7,7.4,2.7l7.4-0.6l0.2,3.9c-3.9,0.6-6.8,0.9-8.7,0.9c-4.9,0-8.3-1.3-10.2-3.8
					c-1.9-2.5-2.8-6.8-2.8-12.7s1-10.2,3-12.6C116.9,252,120.2,250.8,124.9,250.8z"/>
				<path class="st0" d="M140.6,244.3v-5.5h4.7v5.5H140.6z M140.6,282.8v-31.4h4.7v31.4H140.6z"/>
				<path class="st0" d="M153,267c0-5.7,1-9.9,3.1-12.4c2.1-2.6,5.5-3.8,10.4-3.8c4.9,0,8.3,1.3,10.4,3.8c2,2.6,3.1,6.7,3.1,12.4
					s-1,9.9-2.9,12.5s-5.4,3.9-10.6,3.9s-8.6-1.3-10.6-3.9C153.9,277,153,272.8,153,267z M157.8,267c0,4.6,0.6,7.8,1.7,9.6
					c1.1,1.9,3.4,2.8,7,2.8s5.9-0.9,6.9-2.7c1.1-1.8,1.6-5,1.6-9.6s-0.6-7.8-1.8-9.5c-1.2-1.7-3.5-2.6-6.8-2.6s-5.6,0.9-6.8,2.6
					C158.4,259.2,157.8,262.4,157.8,267z"/>
				<path class="st0" d="M192.3,282.8h-4.7v-31.4h4.6v2.2c3.4-1.9,6.6-2.8,9.7-2.8c4.2,0,7,1.1,8.5,3.4c1.4,2.3,2.2,6.3,2.2,12.1
					v16.6h-4.6v-16.5c0-4.4-0.4-7.4-1.3-9c-0.9-1.6-2.7-2.4-5.5-2.4c-1.3,0-2.8,0.2-4.2,0.6c-1.5,0.4-2.6,0.8-3.4,1.2l-1.2,0.6
					L192.3,282.8L192.3,282.8z"/>
				<path class="st0" d="M242.7,278.9l1.8-0.2l0.1,3.7c-4.8,0.7-8.9,1-12.3,1c-4.5,0-7.7-1.3-9.6-3.9s-2.8-6.7-2.8-12.2
					c0-11,4.4-16.5,13.1-16.5c4.2,0,7.4,1.2,9.5,3.6c2.1,2.4,3.1,6.1,3.1,11.2l-0.2,3.6h-20.8c0,3.5,0.6,6.1,1.9,7.7
					c1.3,1.7,3.4,2.5,6.6,2.5C236.3,279.3,239.5,279.2,242.7,278.9z M241,265.3c0-3.9-0.6-6.6-1.9-8.2c-1.2-1.6-3.2-2.4-6-2.4
					s-4.9,0.8-6.3,2.5c-1.4,1.7-2.1,4.4-2.2,8L241,265.3L241,265.3z"/>
				<path class="st0" d="M262.9,255c-4.6,0-6.9,1.6-6.9,4.8c0,1.5,0.5,2.5,1.6,3.1c1,0.6,3.4,1.2,7.2,1.9c3.7,0.6,6.4,1.6,7.9,2.7
					c1.5,1.2,2.3,3.4,2.3,6.6s-1,5.6-3.1,7.1c-2.1,1.5-5.1,2.3-9.1,2.3c-2.6,0-5.7-0.3-9.2-0.9l-1.9-0.3l0.2-4.1
					c4.8,0.7,8.4,1.1,10.8,1.1s4.3-0.4,5.6-1.2c1.3-0.8,1.9-2.1,1.9-3.9s-0.5-3.1-1.6-3.7c-1.1-0.6-3.5-1.3-7.2-1.9
					c-3.7-0.6-6.3-1.5-7.9-2.6s-2.3-3.2-2.3-6.3s1.1-5.3,3.2-6.8c2.2-1.5,4.8-2.2,8.1-2.2c2.6,0,5.8,0.3,9.6,0.9l1.8,0.3l-0.1,4
					C269.3,255.3,265.6,255,262.9,255z"/>
				<path class="st0" d="M282,282.8v-7.2h5.2v7.2H282z"/>
			</g>
		</g>
	</g>
	<rect x="2.6" y="60.8" class="st0" width="397.3" height="4"/>
</g>
</svg>
