<?xml version="1.0" encoding="utf-8"?>
<!-- Generator: Adobe Illustrator 24.3.0, SVG Export Plug-In . SVG Version: 6.00 Build 0)  -->
<svg version="1.1" id="Layer_1" xmlns="http://www.w3.org/2000/svg" xmlns:xlink="http://www.w3.org/1999/xlink" x="0px" y="0px"
	 viewBox="0 0 416.47 283.46" style="enable-background:new 0 0 416.47 283.46;" xml:space="preserve">
<style type="text/css">
	.st0{fill:#1A1A18;}
	.st1{fill:none;stroke:#CBFF00;stroke-width:4;stroke-miterlimit:10;}
</style>
<g>
	<g>
		<g>
			<g>
				<path class="st0" d="M38.98,13.71h5.03l7.36,27.35h2.33l7.61-27.35h4.84l-8.87,31.44h-9.43L38.98,13.71z"/>
				<g>
					<path class="st0" d="M15.31,45.14H35.1v-4.7H15.24c-4.02,0-7.32-3.07-7.52-6.99c-0.1-2.03,0.62-3.97,2.02-5.44
						c1.38-1.45,3.33-2.29,5.33-2.29h12.25v-4.7H15.08c-2,0-3.95-0.83-5.33-2.29c-1.4-1.47-2.12-3.4-2.02-5.44
						c0.19-3.92,3.5-6.99,7.52-6.99H35.1v-4.7H15.31C8.67,1.61,3.16,6.9,3.02,13.4c-0.07,3.36,1.22,6.52,3.63,8.88l1.12,1.1
						l-1.12,1.1c-2.41,2.36-3.7,5.51-3.63,8.88C3.16,39.85,8.67,45.14,15.31,45.14z"/>
				</g>
				<path class="st0" d="M70.23,29.36c0-5.74,1.03-9.89,3.08-12.45c2.05-2.56,5.52-3.84,10.41-3.84c4.88,0,8.34,1.28,10.37,3.84
					c2.03,2.56,3.05,6.71,3.05,12.45c0,5.74-0.96,9.91-2.89,12.51c-1.93,2.6-5.45,3.9-10.56,3.9c-5.11,0-8.64-1.3-10.56-3.9
					C71.19,39.28,70.23,35.11,70.23,29.36z M75.07,29.27c0,4.59,0.56,7.81,1.67,9.65c1.11,1.85,3.44,2.77,6.98,2.77
					c3.54,0,5.86-0.91,6.95-2.74c1.09-1.82,1.63-5.04,1.63-9.65c0-4.61-0.61-7.79-1.82-9.53c-1.22-1.74-3.47-2.61-6.76-2.61
					c-3.29,0-5.55,0.87-6.79,2.61C75.69,21.51,75.07,24.68,75.07,29.27z"/>
				<path class="st0" d="M105.19,45.14V0h4.72v45.14H105.19z"/>
				<path class="st0" d="M138.95,13.71h4.71v31.44h-4.71v-2.2c-3.14,1.89-6.25,2.83-9.31,2.83c-4.28,0-7.12-1.11-8.52-3.33
					c-1.4-2.22-2.11-6.33-2.11-12.32V13.71h4.72v16.35c0,4.57,0.4,7.63,1.19,9.18c0.8,1.55,2.6,2.33,5.41,2.33
					c1.38,0,2.79-0.2,4.21-0.6c1.42-0.4,2.51-0.79,3.27-1.16l1.13-0.57V13.71z"/>
				<path class="st0" d="M164.48,13.08c1.38,0,3.73,0.25,7.04,0.75l1.51,0.19l-0.19,3.84c-3.35-0.38-5.83-0.57-7.42-0.57
					c-3.56,0-5.98,0.85-7.26,2.55c-1.28,1.7-1.92,4.84-1.92,9.43s0.6,7.79,1.79,9.59c1.19,1.8,3.68,2.7,7.45,2.7l7.42-0.57l0.19,3.9
					c-3.9,0.59-6.81,0.88-8.74,0.88c-4.9,0-8.29-1.26-10.15-3.77c-1.87-2.52-2.8-6.76-2.8-12.73s1.01-10.16,3.02-12.57
					C156.43,14.28,159.78,13.08,164.48,13.08z"/>
				<path class="st0" d="M180.13,6.6V1.13h4.72V6.6H180.13z M180.13,45.14V13.71h4.72v31.44H180.13z"/>
				<path class="st0" d="M192.52,29.36c0-5.74,1.03-9.89,3.08-12.45c2.05-2.56,5.52-3.84,10.41-3.84c4.88,0,8.34,1.28,10.37,3.84
					c2.03,2.56,3.05,6.71,3.05,12.45c0,5.74-0.96,9.91-2.89,12.51c-1.93,2.6-5.45,3.9-10.56,3.9c-5.11,0-8.64-1.3-10.56-3.9
					C193.48,39.28,192.52,35.11,192.52,29.36z M197.36,29.27c0,4.59,0.56,7.81,1.67,9.65c1.11,1.85,3.44,2.77,6.98,2.77
					c3.54,0,5.86-0.91,6.95-2.74c1.09-1.82,1.63-5.04,1.63-9.65c0-4.61-0.61-7.79-1.82-9.53c-1.22-1.74-3.47-2.61-6.76-2.61
					c-3.29,0-5.55,0.87-6.79,2.61C197.98,21.51,197.36,24.68,197.36,29.27z"/>
				<path class="st0" d="M231.81,45.14h-4.72V13.71h4.65v2.2c3.39-1.89,6.64-2.83,9.74-2.83c4.19,0,7.01,1.13,8.46,3.4
					c1.45,2.26,2.17,6.29,2.17,12.07v16.6h-4.65V28.67c0-4.36-0.43-7.35-1.29-8.96c-0.86-1.61-2.69-2.42-5.5-2.42
					c-1.34,0-2.76,0.2-4.24,0.6c-1.49,0.4-2.63,0.79-3.43,1.16l-1.19,0.57V45.14z"/>
				<path class="st0" d="M283.05,23.2v16.1c0.13,1.55,1.34,2.47,3.65,2.77l-0.19,3.71c-3.31,0-5.81-0.84-7.48-2.52
					c-3.77,1.68-7.54,2.52-11.32,2.52c-2.89,0-5.09-0.82-6.6-2.45s-2.26-3.98-2.26-7.04c0-3.06,0.77-5.31,2.33-6.76
					c1.55-1.45,3.98-2.34,7.29-2.67l9.87-0.94v-2.7c0-2.14-0.46-3.67-1.38-4.59c-0.92-0.92-2.18-1.38-3.77-1.38
					c-3.35,0-6.83,0.21-10.44,0.63l-1.95,0.19l-0.19-3.58c4.61-0.92,8.7-1.38,12.26-1.38c3.56,0,6.15,0.82,7.76,2.45
					C282.25,17.16,283.05,19.72,283.05,23.2z M263.69,36.03c0,3.86,1.59,5.78,4.78,5.78c2.85,0,5.66-0.48,8.42-1.45l1.45-0.5V29.49
					l-9.31,0.88c-1.89,0.17-3.25,0.71-4.09,1.63C264.11,32.93,263.69,34.27,263.69,36.03z"/>
				<path class="st0" d="M297.08,45.14h-4.72V13.71h4.65v2.2c3.14-1.89,6.2-2.83,9.18-2.83c3.9,0,6.62,1.07,8.17,3.21
					c1.38-0.84,3.18-1.58,5.38-2.23c2.2-0.65,4.14-0.97,5.82-0.97c4.19,0,7.01,1.12,8.46,3.36c1.45,2.24,2.17,6.28,2.17,12.1v16.6
					h-4.71V28.67c0-4.36-0.42-7.35-1.26-8.96c-0.84-1.61-2.62-2.42-5.34-2.42c-1.38,0-2.81,0.2-4.27,0.6
					c-1.47,0.4-2.6,0.79-3.4,1.16L316,19.62c0.54,1.38,0.82,4.44,0.82,9.18v16.35h-4.71V28.92c0-4.53-0.41-7.6-1.23-9.21
					c-0.82-1.61-2.61-2.42-5.38-2.42c-1.34,0-2.71,0.2-4.12,0.6c-1.4,0.4-2.48,0.79-3.24,1.16l-1.07,0.57V45.14z"/>
				<path class="st0" d="M343.54,29.36c0-5.74,1.03-9.89,3.08-12.45c2.05-2.56,5.52-3.84,10.41-3.84c4.88,0,8.34,1.28,10.37,3.84
					c2.03,2.56,3.05,6.71,3.05,12.45c0,5.74-0.96,9.91-2.89,12.51c-1.93,2.6-5.45,3.9-10.56,3.9s-8.64-1.3-10.56-3.9
					C344.5,39.28,343.54,35.11,343.54,29.36z M348.38,29.27c0,4.59,0.56,7.81,1.67,9.65c1.11,1.85,3.44,2.77,6.98,2.77
					c3.54,0,5.86-0.91,6.95-2.74c1.09-1.82,1.63-5.04,1.63-9.65c0-4.61-0.61-7.79-1.82-9.53c-1.22-1.74-3.47-2.61-6.76-2.61
					c-3.29,0-5.55,0.87-6.79,2.61C349,21.51,348.38,24.68,348.38,29.27z"/>
				<path class="st0" d="M387.99,17.29c-4.57,0-6.85,1.59-6.85,4.78c0,1.47,0.52,2.51,1.57,3.11c1.05,0.61,3.44,1.24,7.17,1.89
					c3.73,0.65,6.37,1.56,7.92,2.74c1.55,1.17,2.33,3.37,2.33,6.6c0,3.23-1.04,5.6-3.11,7.1s-5.1,2.26-9.09,2.26
					c-2.6,0-5.66-0.29-9.18-0.88l-1.89-0.31l0.25-4.09c4.78,0.71,8.38,1.07,10.81,1.07c2.43,0,4.28-0.39,5.56-1.16
					c1.28-0.78,1.92-2.08,1.92-3.9c0-1.82-0.55-3.06-1.63-3.71c-1.09-0.65-3.48-1.27-7.17-1.85c-3.69-0.59-6.31-1.45-7.86-2.58
					c-1.55-1.13-2.33-3.23-2.33-6.29c0-3.06,1.08-5.32,3.24-6.79c2.16-1.47,4.85-2.2,8.08-2.2c2.56,0,5.76,0.29,9.62,0.88l1.76,0.31
					l-0.13,4.02C394.34,17.63,390.67,17.29,387.99,17.29z"/>
				<path class="st0" d="M19.11,97.02h-10v15.03c0,3.61,0.26,5.97,0.79,7.1c0.52,1.13,1.77,1.7,3.74,1.7l5.6-0.38l0.31,3.9
					c-2.81,0.46-4.95,0.69-6.41,0.69c-3.27,0-5.53-0.8-6.79-2.39c-1.26-1.59-1.89-4.63-1.89-9.12V97.02H0v-4.09h4.46v-9.62h4.65
					v9.62h10V97.02z"/>
				<path class="st0" d="M44.96,92.93h4.71v31.44h-4.71v-2.2c-3.14,1.89-6.25,2.83-9.31,2.83c-4.28,0-7.12-1.11-8.52-3.33
					c-1.4-2.22-2.11-6.33-2.11-12.32V92.93h4.72v16.35c0,4.57,0.4,7.63,1.19,9.18c0.8,1.55,2.6,2.33,5.41,2.33
					c1.38,0,2.79-0.2,4.21-0.6c1.42-0.4,2.51-0.79,3.27-1.16l1.13-0.57V92.93z"/>
				<path class="st0" d="M78.15,124.37h-4.72V92.93h4.65v2.2c3.39-1.89,6.64-2.83,9.74-2.83c4.19,0,7.01,1.13,8.46,3.4
					c1.45,2.26,2.17,6.29,2.17,12.07v16.6h-4.65V107.9c0-4.36-0.43-7.35-1.29-8.96c-0.86-1.61-2.69-2.42-5.5-2.42
					c-1.34,0-2.76,0.2-4.24,0.6c-1.49,0.4-2.63,0.79-3.43,1.16l-1.19,0.57V124.37z"/>
				<path class="st0" d="M129.01,120.47l1.82-0.19l0.13,3.71c-4.78,0.67-8.86,1.01-12.26,1.01c-4.53,0-7.73-1.31-9.62-3.93
					c-1.89-2.62-2.83-6.7-2.83-12.23c0-11.02,4.38-16.54,13.14-16.54c4.23,0,7.4,1.18,9.49,3.55c2.1,2.37,3.14,6.09,3.14,11.16
					l-0.25,3.58h-20.75c0,3.48,0.63,6.06,1.89,7.73c1.26,1.68,3.45,2.52,6.57,2.52C122.61,120.85,125.79,120.72,129.01,120.47z
					 M127.32,106.83c0-3.86-0.62-6.58-1.86-8.17c-1.24-1.59-3.25-2.39-6.04-2.39c-2.79,0-4.88,0.84-6.29,2.52
					c-1.4,1.68-2.13,4.36-2.17,8.05H127.32z"/>
				<path class="st0" d="M151.96,139.15c-5.03,0-8.54-0.68-10.53-2.04c-1.99-1.36-2.99-3.85-2.99-7.45c0-1.72,0.38-3.11,1.13-4.18
					c0.75-1.07,2.03-2.27,3.84-3.62c-1.17-0.8-1.76-2.24-1.76-4.34c0-0.71,0.52-2.03,1.57-3.96l0.57-1.01
					c-3.31-1.51-4.97-4.67-4.97-9.49c0-7.17,3.92-10.75,11.76-10.75c2.01,0,3.88,0.21,5.6,0.63l0.94,0.19l9.31-0.25v4.02l-5.97-0.13
					c1.38,1.38,2.08,3.48,2.08,6.29c0,3.94-0.97,6.7-2.92,8.27c-1.95,1.57-5.02,2.36-9.21,2.36c-1.13,0-2.16-0.08-3.08-0.25
					c-0.75,1.84-1.13,3.04-1.13,3.58c0,1.3,0.4,2.11,1.19,2.42c0.8,0.31,3.21,0.47,7.23,0.47c4.02,0,6.92,0.63,8.68,1.89
					c1.76,1.26,2.64,3.71,2.64,7.36C165.92,135.81,161.27,139.15,151.96,139.15z M143.1,129.28c0,2.22,0.62,3.76,1.86,4.62
					c1.24,0.86,3.52,1.29,6.85,1.29s5.72-0.46,7.17-1.38c1.45-0.92,2.17-2.46,2.17-4.62c0-2.16-0.52-3.55-1.57-4.18
					c-1.05-0.63-3.1-0.94-6.16-0.94l-6.79-0.31c-1.38,1.01-2.32,1.89-2.8,2.64C143.34,127.14,143.1,128.1,143.1,129.28z
					 M143.54,103.06c0,2.47,0.56,4.23,1.67,5.28c1.11,1.05,2.94,1.57,5.5,1.57c2.56,0,4.38-0.52,5.47-1.57
					c1.09-1.05,1.63-2.82,1.63-5.31c0-2.49-0.55-4.26-1.63-5.31c-1.09-1.05-2.91-1.57-5.47-1.57c-2.56,0-4.39,0.53-5.5,1.6
					C144.09,98.81,143.54,100.58,143.54,103.06z"/>
				<path class="st0" d="M171.2,108.59c0-5.74,1.03-9.89,3.08-12.45c2.05-2.56,5.52-3.84,10.41-3.84s8.34,1.28,10.37,3.84
					c2.03,2.56,3.05,6.71,3.05,12.45c0,5.74-0.96,9.91-2.89,12.51c-1.93,2.6-5.45,3.9-10.56,3.9c-5.11,0-8.64-1.3-10.56-3.9
					C172.16,118.5,171.2,114.33,171.2,108.59z M176.04,108.5c0,4.59,0.56,7.81,1.67,9.65c1.11,1.85,3.44,2.77,6.98,2.77
					c3.54,0,5.86-0.91,6.95-2.74c1.09-1.82,1.63-5.04,1.63-9.65c0-4.61-0.61-7.79-1.82-9.53c-1.22-1.74-3.47-2.61-6.76-2.61
					c-3.29,0-5.55,0.87-6.79,2.61C176.66,100.74,176.04,103.91,176.04,108.5z"/>
				<path class="st0" d="M217.98,92.31c1.38,0,3.73,0.25,7.04,0.75l1.51,0.19l-0.19,3.84c-3.35-0.38-5.83-0.57-7.42-0.57
					c-3.56,0-5.98,0.85-7.26,2.55c-1.28,1.7-1.92,4.84-1.92,9.43c0,4.59,0.6,7.79,1.79,9.59c1.19,1.8,3.68,2.7,7.45,2.7l7.42-0.57
					l0.19,3.9c-3.9,0.59-6.81,0.88-8.74,0.88c-4.9,0-8.29-1.26-10.15-3.77c-1.87-2.52-2.8-6.76-2.8-12.73
					c0-5.97,1.01-10.16,3.02-12.57C209.93,93.51,213.28,92.31,217.98,92.31z"/>
				<path class="st0" d="M234.07,85.83v-5.47h4.72v5.47H234.07z M234.07,124.37V92.93h4.72v31.44H234.07z"/>
				<path class="st0" d="M246.9,108.59c0-5.74,1.03-9.89,3.08-12.45c2.05-2.56,5.52-3.84,10.41-3.84c4.88,0,8.34,1.28,10.37,3.84
					c2.03,2.56,3.05,6.71,3.05,12.45c0,5.74-0.96,9.91-2.89,12.51c-1.93,2.6-5.45,3.9-10.56,3.9s-8.64-1.3-10.56-3.9
					C247.86,118.5,246.9,114.33,246.9,108.59z M251.74,108.5c0,4.59,0.56,7.81,1.67,9.65c1.11,1.85,3.44,2.77,6.98,2.77
					c3.54,0,5.86-0.91,6.95-2.74c1.09-1.82,1.63-5.04,1.63-9.65c0-4.61-0.61-7.79-1.82-9.53c-1.22-1.74-3.47-2.61-6.76-2.61
					c-3.29,0-5.55,0.87-6.79,2.61C252.36,100.74,251.74,103.91,251.74,108.5z"/>
				<path class="st0" d="M279.53,132.1l2.89-14.46h5.22l-4.21,14.46H279.53z"/>
				<path class="st0" d="M2.83,165.06v-5.47h4.72v5.47H2.83z M2.83,203.6v-31.44h4.72v31.44H2.83z"/>
				<path class="st0" d="M20.37,203.6h-4.72v-31.44h4.65v2.2c3.14-1.89,6.2-2.83,9.18-2.83c3.9,0,6.62,1.07,8.17,3.21
					c1.38-0.84,3.18-1.58,5.38-2.23c2.2-0.65,4.14-0.97,5.82-0.97c4.19,0,7.01,1.12,8.46,3.36c1.45,2.24,2.17,6.28,2.17,12.1v16.6
					h-4.72v-16.47c0-4.36-0.42-7.35-1.26-8.96c-0.84-1.61-2.62-2.42-5.34-2.42c-1.38,0-2.81,0.2-4.28,0.6
					c-1.47,0.4-2.6,0.79-3.4,1.16l-1.19,0.57c0.54,1.38,0.82,4.44,0.82,9.18v16.35H35.4v-16.22c0-4.53-0.41-7.6-1.23-9.21
					c-0.82-1.61-2.61-2.42-5.38-2.42c-1.34,0-2.71,0.2-4.12,0.6c-1.4,0.4-2.48,0.79-3.24,1.16l-1.07,0.57V203.6z"/>
				<path class="st0" d="M67.27,217.56v-45.39h4.65v2.26c3.18-1.93,6.33-2.89,9.43-2.89c3.98,0,6.87,1.27,8.68,3.8
					c1.8,2.54,2.7,6.72,2.7,12.54c0,5.83-1.06,10.01-3.18,12.54c-2.12,2.54-5.63,3.8-10.53,3.8c-2.56,0-4.9-0.23-7.04-0.69v14.02
					H67.27z M80.67,175.75c-1.26,0-2.61,0.21-4.06,0.63c-1.45,0.42-2.59,0.84-3.43,1.26l-1.19,0.63v21.19
					c2.98,0.46,5.24,0.69,6.79,0.69c3.4,0,5.77-0.96,7.14-2.89c1.36-1.93,2.04-5.07,2.04-9.43c0-4.36-0.62-7.46-1.85-9.31
					C84.87,176.67,83.06,175.75,80.67,175.75z"/>
				<path class="st0" d="M99.84,203.6v-45.14h4.72v45.14H99.84z"/>
				<path class="st0" d="M134.42,199.7l1.82-0.19l0.13,3.71c-4.78,0.67-8.86,1.01-12.26,1.01c-4.53,0-7.73-1.31-9.62-3.93
					c-1.89-2.62-2.83-6.7-2.83-12.23c0-11.02,4.38-16.54,13.14-16.54c4.23,0,7.4,1.18,9.49,3.55c2.1,2.37,3.14,6.09,3.14,11.16
					l-0.25,3.58h-20.75c0,3.48,0.63,6.06,1.89,7.73c1.26,1.68,3.45,2.52,6.57,2.52C128.02,200.08,131.19,199.95,134.42,199.7z
					 M132.72,186.06c0-3.86-0.62-6.58-1.86-8.17c-1.24-1.59-3.25-2.39-6.04-2.39c-2.79,0-4.88,0.84-6.29,2.52
					c-1.4,1.68-2.13,4.36-2.17,8.05H132.72z"/>
				<path class="st0" d="M148.57,203.6h-4.72v-31.44h4.65v2.2c3.14-1.89,6.2-2.83,9.18-2.83c3.9,0,6.62,1.07,8.17,3.21
					c1.38-0.84,3.18-1.58,5.38-2.23c2.2-0.65,4.14-0.97,5.82-0.97c4.19,0,7.01,1.12,8.46,3.36c1.45,2.24,2.17,6.28,2.17,12.1v16.6
					h-4.72v-16.47c0-4.36-0.42-7.35-1.26-8.96c-0.84-1.61-2.62-2.42-5.34-2.42c-1.38,0-2.81,0.2-4.28,0.6
					c-1.47,0.4-2.6,0.79-3.4,1.16l-1.19,0.57c0.54,1.38,0.82,4.44,0.82,9.18v16.35h-4.72v-16.22c0-4.53-0.41-7.6-1.23-9.21
					c-0.82-1.61-2.61-2.42-5.38-2.42c-1.34,0-2.71,0.2-4.12,0.6c-1.4,0.4-2.48,0.79-3.24,1.16l-1.07,0.57V203.6z"/>
				<path class="st0" d="M216.85,199.7l1.82-0.19l0.13,3.71c-4.78,0.67-8.86,1.01-12.26,1.01c-4.53,0-7.73-1.31-9.62-3.93
					c-1.89-2.62-2.83-6.7-2.83-12.23c0-11.02,4.38-16.54,13.14-16.54c4.23,0,7.4,1.18,9.49,3.55c2.1,2.37,3.14,6.09,3.14,11.16
					l-0.25,3.58h-20.75c0,3.48,0.63,6.06,1.89,7.73c1.26,1.68,3.45,2.52,6.57,2.52C210.45,200.08,213.62,199.95,216.85,199.7z
					 M215.15,186.06c0-3.86-0.62-6.58-1.86-8.17c-1.24-1.59-3.25-2.39-6.04-2.39c-2.79,0-4.88,0.84-6.29,2.52
					c-1.4,1.68-2.13,4.36-2.17,8.05H215.15z"/>
				<path class="st0" d="M230.99,203.6h-4.72v-31.44h4.65v2.2c3.39-1.89,6.64-2.83,9.74-2.83c4.19,0,7.01,1.13,8.46,3.4
					c1.45,2.26,2.17,6.29,2.17,12.07v16.6h-4.65v-16.47c0-4.36-0.43-7.35-1.29-8.96c-0.86-1.61-2.69-2.42-5.5-2.42
					c-1.34,0-2.76,0.2-4.24,0.6c-1.49,0.4-2.63,0.79-3.43,1.16l-1.19,0.57V203.6z"/>
				<path class="st0" d="M275.2,176.25h-10v15.03c0,3.61,0.26,5.97,0.79,7.1c0.52,1.13,1.77,1.7,3.74,1.7l5.6-0.38l0.31,3.9
					c-2.81,0.46-4.95,0.69-6.41,0.69c-3.27,0-5.53-0.8-6.79-2.39c-1.26-1.59-1.89-4.63-1.89-9.12v-16.54h-4.46v-4.09h4.46v-9.62
					h4.65v9.62h10V176.25z"/>
				<path class="st0" d="M302.23,181.66v16.1c0.13,1.55,1.34,2.47,3.65,2.77l-0.19,3.71c-3.31,0-5.81-0.84-7.48-2.52
					c-3.77,1.68-7.54,2.52-11.32,2.52c-2.89,0-5.09-0.82-6.6-2.45c-1.51-1.63-2.26-3.98-2.26-7.04c0-3.06,0.77-5.31,2.33-6.76
					c1.55-1.45,3.98-2.34,7.29-2.67l9.87-0.94v-2.7c0-2.14-0.46-3.67-1.38-4.59c-0.92-0.92-2.18-1.38-3.77-1.38
					c-3.35,0-6.83,0.21-10.44,0.63l-1.95,0.19l-0.19-3.58c4.61-0.92,8.7-1.38,12.26-1.38c3.56,0,6.15,0.82,7.76,2.45
					C301.42,175.62,302.23,178.18,302.23,181.66z M282.87,194.48c0,3.86,1.59,5.78,4.78,5.78c2.85,0,5.66-0.48,8.42-1.45l1.45-0.5
					v-10.37l-9.31,0.88c-1.89,0.17-3.25,0.71-4.09,1.63C283.28,191.38,282.87,192.72,282.87,194.48z"/>
				<path class="st0" d="M315.31,203.6h-4.72v-31.44h4.65v2.2c3.14-1.89,6.2-2.83,9.18-2.83c3.9,0,6.62,1.07,8.17,3.21
					c1.38-0.84,3.18-1.58,5.38-2.23c2.2-0.65,4.14-0.97,5.82-0.97c4.19,0,7.01,1.12,8.46,3.36c1.45,2.24,2.17,6.28,2.17,12.1v16.6
					h-4.72v-16.47c0-4.36-0.42-7.35-1.26-8.96c-0.84-1.61-2.62-2.42-5.34-2.42c-1.38,0-2.81,0.2-4.28,0.6
					c-1.47,0.4-2.6,0.79-3.4,1.16l-1.19,0.57c0.54,1.38,0.82,4.44,0.82,9.18v16.35h-4.72v-16.22c0-4.53-0.41-7.6-1.23-9.21
					c-0.82-1.61-2.61-2.42-5.38-2.42c-1.34,0-2.71,0.2-4.12,0.6c-1.4,0.4-2.48,0.79-3.24,1.16l-1.07,0.57V203.6z"/>
				<path class="st0" d="M360.83,187.82c0-5.74,1.03-9.89,3.08-12.45c2.05-2.56,5.52-3.84,10.41-3.84c4.88,0,8.34,1.28,10.37,3.84
					c2.03,2.56,3.05,6.71,3.05,12.45c0,5.74-0.96,9.91-2.89,12.51c-1.93,2.6-5.45,3.9-10.56,3.9s-8.64-1.3-10.56-3.9
					C361.79,197.73,360.83,193.56,360.83,187.82z M365.67,187.72c0,4.59,0.56,7.81,1.67,9.65c1.11,1.85,3.44,2.77,6.98,2.77
					c3.54,0,5.86-0.91,6.95-2.74c1.09-1.82,1.63-5.04,1.63-9.65c0-4.61-0.61-7.79-1.82-9.53c-1.22-1.74-3.47-2.61-6.76-2.61
					c-3.29,0-5.55,0.87-6.79,2.61C366.29,179.97,365.67,183.13,365.67,187.72z"/>
				<path class="st0" d="M404.34,175.75c-4.57,0-6.85,1.59-6.85,4.78c0,1.47,0.52,2.51,1.57,3.11c1.05,0.61,3.44,1.24,7.17,1.89
					c3.73,0.65,6.37,1.56,7.92,2.74c1.55,1.17,2.33,3.37,2.33,6.6c0,3.23-1.04,5.6-3.11,7.1s-5.1,2.26-9.09,2.26
					c-2.6,0-5.66-0.29-9.18-0.88l-1.89-0.31l0.25-4.09c4.78,0.71,8.38,1.07,10.81,1.07c2.43,0,4.28-0.39,5.56-1.16
					c1.28-0.78,1.92-2.08,1.92-3.9c0-1.82-0.55-3.06-1.63-3.71c-1.09-0.65-3.48-1.27-7.17-1.85c-3.69-0.59-6.31-1.45-7.86-2.58
					c-1.55-1.13-2.33-3.23-2.33-6.29c0-3.06,1.08-5.32,3.24-6.79c2.16-1.47,4.85-2.2,8.08-2.2c2.56,0,5.76,0.29,9.62,0.88l1.76,0.31
					l-0.13,4.02C410.69,176.08,407.02,175.75,404.34,175.75z"/>
				<path class="st0" d="M12.7,254.97c-4.57,0-6.85,1.59-6.85,4.78c0,1.47,0.52,2.51,1.57,3.11c1.05,0.61,3.44,1.24,7.17,1.89
					c3.73,0.65,6.37,1.56,7.92,2.74c1.55,1.17,2.33,3.37,2.33,6.6c0,3.23-1.04,5.6-3.11,7.1c-2.07,1.51-5.1,2.26-9.09,2.26
					c-2.6,0-5.66-0.29-9.18-0.88l-1.89-0.31l0.25-4.09c4.78,0.71,8.38,1.07,10.81,1.07s4.29-0.39,5.57-1.16
					c1.28-0.78,1.92-2.08,1.92-3.9c0-1.82-0.55-3.06-1.63-3.71c-1.09-0.65-3.48-1.27-7.17-1.85c-3.69-0.59-6.31-1.45-7.86-2.58
					s-2.33-3.23-2.33-6.29c0-3.06,1.08-5.32,3.24-6.79c2.16-1.47,4.85-2.2,8.08-2.2c2.56,0,5.76,0.29,9.62,0.88l1.76,0.31
					l-0.13,4.02C19.05,255.31,15.38,254.97,12.7,254.97z"/>
				<path class="st0" d="M30.68,267.05c0-5.74,1.03-9.89,3.08-12.45c2.05-2.56,5.52-3.84,10.41-3.84c4.88,0,8.34,1.28,10.37,3.84
					c2.03,2.56,3.05,6.71,3.05,12.45c0,5.74-0.96,9.91-2.89,12.51c-1.93,2.6-5.45,3.9-10.56,3.9c-5.11,0-8.64-1.3-10.56-3.9
					C31.65,276.96,30.68,272.79,30.68,267.05z M35.52,266.95c0,4.59,0.56,7.81,1.67,9.65c1.11,1.85,3.44,2.77,6.98,2.77
					c3.54,0,5.86-0.91,6.95-2.74c1.09-1.82,1.63-5.04,1.63-9.65c0-4.61-0.61-7.79-1.82-9.53c-1.22-1.74-3.47-2.61-6.76-2.61
					c-3.29,0-5.55,0.87-6.79,2.61C36.14,259.2,35.52,262.36,35.52,266.95z"/>
				<path class="st0" d="M65.64,282.83v-45.14h4.72v45.14H65.64z"/>
				<path class="st0" d="M99.4,251.39h4.72v31.44H99.4v-2.2c-3.14,1.89-6.25,2.83-9.3,2.83c-4.28,0-7.12-1.11-8.52-3.33
					c-1.4-2.22-2.11-6.33-2.11-12.32v-16.41h4.72v16.35c0,4.57,0.4,7.63,1.19,9.18c0.8,1.55,2.6,2.33,5.41,2.33
					c1.38,0,2.79-0.2,4.21-0.6c1.42-0.4,2.51-0.79,3.27-1.16l1.13-0.57V251.39z"/>
				<path class="st0" d="M124.93,250.76c1.38,0,3.73,0.25,7.04,0.75l1.51,0.19l-0.19,3.84c-3.35-0.38-5.83-0.57-7.42-0.57
					c-3.56,0-5.98,0.85-7.26,2.55c-1.28,1.7-1.92,4.84-1.92,9.43s0.6,7.79,1.79,9.59c1.19,1.8,3.68,2.7,7.45,2.7l7.42-0.57l0.19,3.9
					c-3.9,0.59-6.81,0.88-8.74,0.88c-4.9,0-8.29-1.26-10.15-3.77c-1.87-2.52-2.8-6.76-2.8-12.73s1.01-10.16,3.02-12.57
					C116.88,251.97,120.23,250.76,124.93,250.76z"/>
				<path class="st0" d="M140.58,244.28v-5.47h4.72v5.47H140.58z M140.58,282.83v-31.44h4.72v31.44H140.58z"/>
				<path class="st0" d="M152.97,267.05c0-5.74,1.03-9.89,3.08-12.45c2.05-2.56,5.52-3.84,10.41-3.84c4.88,0,8.34,1.28,10.37,3.84
					c2.03,2.56,3.05,6.71,3.05,12.45c0,5.74-0.96,9.91-2.89,12.51c-1.93,2.6-5.45,3.9-10.56,3.9c-5.11,0-8.64-1.3-10.56-3.9
					C153.93,276.96,152.97,272.79,152.97,267.05z M157.81,266.95c0,4.59,0.56,7.81,1.67,9.65c1.11,1.85,3.44,2.77,6.98,2.77
					c3.54,0,5.86-0.91,6.95-2.74c1.09-1.82,1.63-5.04,1.63-9.65c0-4.61-0.61-7.79-1.82-9.53c-1.22-1.74-3.47-2.61-6.76-2.61
					c-3.29,0-5.55,0.87-6.79,2.61C158.43,259.2,157.81,262.36,157.81,266.95z"/>
				<path class="st0" d="M192.27,282.83h-4.72v-31.44h4.65v2.2c3.39-1.89,6.64-2.83,9.74-2.83c4.19,0,7.01,1.13,8.46,3.4
					c1.45,2.26,2.17,6.29,2.17,12.07v16.6h-4.65v-16.47c0-4.36-0.43-7.35-1.29-8.96c-0.86-1.61-2.69-2.42-5.5-2.42
					c-1.34,0-2.76,0.2-4.24,0.6c-1.49,0.4-2.63,0.79-3.43,1.16l-1.19,0.57V282.83z"/>
				<path class="st0" d="M242.69,278.93l1.82-0.19l0.13,3.71c-4.78,0.67-8.86,1.01-12.26,1.01c-4.53,0-7.73-1.31-9.62-3.93
					c-1.89-2.62-2.83-6.7-2.83-12.23c0-11.02,4.38-16.54,13.14-16.54c4.23,0,7.4,1.18,9.49,3.55c2.1,2.37,3.14,6.09,3.14,11.16
					l-0.25,3.58h-20.75c0,3.48,0.63,6.06,1.89,7.73c1.26,1.68,3.45,2.52,6.57,2.52C236.29,279.31,239.46,279.18,242.69,278.93z
					 M240.99,265.28c0-3.86-0.62-6.58-1.86-8.17c-1.24-1.59-3.25-2.39-6.04-2.39c-2.79,0-4.88,0.84-6.29,2.52
					c-1.4,1.68-2.13,4.36-2.17,8.05H240.99z"/>
				<path class="st0" d="M262.93,254.97c-4.57,0-6.85,1.59-6.85,4.78c0,1.47,0.52,2.51,1.57,3.11c1.05,0.61,3.44,1.24,7.17,1.89
					c3.73,0.65,6.37,1.56,7.92,2.74c1.55,1.17,2.33,3.37,2.33,6.6c0,3.23-1.04,5.6-3.11,7.1c-2.07,1.51-5.1,2.26-9.09,2.26
					c-2.6,0-5.66-0.29-9.18-0.88l-1.89-0.31l0.25-4.09c4.78,0.71,8.38,1.07,10.81,1.07s4.29-0.39,5.57-1.16
					c1.28-0.78,1.92-2.08,1.92-3.9c0-1.82-0.55-3.06-1.63-3.71c-1.09-0.65-3.48-1.27-7.17-1.85c-3.69-0.59-6.31-1.45-7.86-2.58
					s-2.33-3.23-2.33-6.29c0-3.06,1.08-5.32,3.24-6.79c2.16-1.47,4.85-2.2,8.08-2.2c2.56,0,5.76,0.29,9.62,0.88l1.76,0.31
					l-0.13,4.02C269.28,255.31,265.62,254.97,262.93,254.97z"/>
				<path class="st0" d="M281.98,282.83v-7.17h5.16v7.17H281.98z"/>
			</g>
		</g>
	</g>
	<line class="st1" x1="399.9" y1="62.78" x2="2.6" y2="62.78"/>
</g>
</svg>
